<?xml version="1.0" encoding="UTF-8"?>
<!DOCTYPE svg PUBLIC "-//W3C//DTD SVG 1.1//EN" "http://www.w3.org/Graphics/SVG/1.1/DTD/svg11.dtd">
<!-- Creator: CorelDRAW X8 -->
<svg xmlns="http://www.w3.org/2000/svg" xml:space="preserve" width="20in" height="6in" version="1.1" style="shape-rendering:geometricPrecision; text-rendering:geometricPrecision; image-rendering:optimizeQuality; fill-rule:evenodd; clip-rule:evenodd"
viewBox="0 0 20000 6000"
 xmlns:xlink="http://www.w3.org/1999/xlink">
 <defs>
  <style type="text/css">
   <![CDATA[
    .fil1 {fill:#0F3153}
    .fil2 {fill:#957531}
    .fil0 {fill:#9C8243}
    .fil3 {fill:#A78E54}
    .fil6 {fill:#E5E5D9}
    .fil5 {fill:#F7F7F5}
    .fil4 {fill:#F9ECD8}
   ]]>
  </style>
 </defs>
 <g id="Layer_x0020_1">
  <metadata id="CorelCorpID_0Corel-Layer"/>
  <path class="fil0" d="M5372 3018l0 0zm0 0l11 -14 -11 14zm11 -14l14 -24 6 7 -20 17zm113 -144l0 0zm-136 -15l0 0zm-302 -14l2 2c0,0 -3,-1 -2,-2zm314 -14l0 0zm11 -15l0 0zm-443 -58l0 0zm662 -115l0 0zm-645 -7l23 0 -20 24 -3 -24zm131 -7l0 0zm585 -8l2 3c0,-1 -2,-2 -2,-3zm-710 0c6,-7 18,10 7,4 0,0 -15,6 -7,-4zm113 -36l0 0zm-130 -14l10 -8 -10 8zm0 -22c0,-24 0,25 0,0zm662 94l-6 0 6 -7c25,-29 1,-16 20,-48 11,-18 15,-5 24,-38 8,-29 12,-68 25,-98 49,-120 12,-123 44,-205l226 5c25,51 -35,244 -50,288 -72,10 -53,7 -121,29 -7,2 -25,13 -33,16 -21,9 -44,13 -65,23 -25,12 -59,43 -70,35zm0 -346c5,51 23,-2 -1,48 -8,16 -18,37 -22,60l-42 137c-7,8 -39,68 -47,86 -42,94 -9,34 -59,73l23 1 -17 13c-12,37 -7,22 -30,51l-6 0 -6 0 -18 50 -5 0 -6 15 -12 28 -22 16 -2 -621 142 7 143 -10 2 10 -15 36zm-621 -29c10,-32 210,-21 254,-21l8 0 1 633c-17,-8 -34,-22 -20,-49l0 -8 -18 -1 18 -6c-51,-39 -18,26 -46,-64l-36 -2 -7 -56 -23 -1 -30 -64 -12 -44c-37,-28 -24,-31 -38,-70 -6,-17 -23,-51 -31,-75 -9,-27 -8,-68 -14,-89 -7,-23 -20,-63 -6,-83zm-41 303l22 31 -11 34c-26,-4 -39,-21 -68,-38 -27,-16 -191,-59 -209,-86 -14,-49 -59,-215 -41,-243 37,-28 172,-20 222,-14 15,9 59,219 60,236 2,37 -6,12 18,32l-25 18c25,17 16,1 32,30zm15 -510c4,-45 19,-192 39,-222 19,2 38,15 58,20 74,20 124,22 198,32l-1 258 -295 -1 1 -87zm566 -197l69 -22 21 102 17 173 -3 33 -297 -6 2 -250 191 -30zm501 65l0 0zm-1343 -50l0 0zm1296 -87c-7,8 -6,9 0,0zm-1166 -29l0 0zm-76 -7l1 2c0,0 -2,-1 -1,-2zm1159 87l0 7c23,60 77,249 48,296l-231 -13c0,-58 -11,-128 -9,-160 4,-56 -26,-81 -3,-109l-24 -40 138 -104 5 -6 76 129zm-1094 -87l0 0zm739 -21l-3 14 3 -14zm-493 -45c12,-26 32,-77 52,-89 12,-52 113,-154 154,-187l-1 382c-52,5 -176,-24 -227,-47 2,-24 11,-37 22,-59zm493 45l0 -8 0 8zm0 -8l-12 0 5 -16 7 16zm-905 -7l0 0zm166 36l0 7 11 0 97 48 -26 133 -11 190 -237 8c-16,-34 1,-75 4,-87 4,-15 26,-161 43,-176l24 -22c9,-29 -3,-27 12,-57 10,-20 11,-18 20,-26 16,-17 6,-5 15,-25l17 -2c-9,-36 -20,8 -5,-35l36 44zm1130 -50l0 0zm-971 -43l0 0zm764 -15l0 0zm-113 -14l0 0zm-917 0l0 0zm911 -22l-11 -3 11 3zm-23 -43l0 0zm-787 -58l0 0zm17 -22l-3 19 -8 -4 11 -15zm255 -14l2 2c0,0 -3,-1 -2,-2zm455 -14l36 21c55,0 2,29 90,48 17,4 22,20 29,28 35,45 34,-43 35,82l12 -21 0 -7 2 -21c23,35 15,43 -2,57 -19,6 -45,30 -49,33 -29,19 -22,-1 -57,-5l-7 -42 -6 -22 14 -10c-55,-8 -11,3 -37,-33 -14,-15 -25,-33 -33,-55 -23,-64 -5,-22 -39,-39l12 -14zm0 0l0 0zm-136 14l12 29 6 7c44,21 44,52 68,81 18,20 18,36 32,57 37,52 10,50 24,78 0,40 -54,42 -81,46 -43,6 -68,12 -114,12l2 -338 51 28zm-426 188l-6 0c0,49 -9,45 -16,36 -13,-16 12,3 -10,-17 -8,-8 -7,-1 -21,-12 -55,-34 -26,24 -65,-51l59 -57 155 -108 -1 14c8,17 -7,40 -18,48 -30,22 -11,6 -28,55 -21,62 -17,-4 -28,43 -13,51 -10,17 -21,49zm60 -311l0 0zm29 -28l-18 14 -11 14c-49,17 -88,46 -126,74 -2,2 -18,10 -20,11 -18,3 0,-11 -16,2 -55,44 6,22 -46,50l-16 -7 -1 29 -12 7 -42 36 -41 65 -6 15c-45,61 2,34 -59,86 -13,34 10,-5 -3,28 -7,20 -9,14 -17,34 -20,49 -12,21 -26,70l-33 115c-8,42 3,-14 -10,18 1,73 -20,126 -15,202 2,36 -4,78 6,107 4,12 10,79 10,79 1,49 -17,-7 11,71 7,19 26,24 25,66 -1,82 46,57 42,123l93 39c42,-11 138,62 158,51l-4 21c42,-20 45,28 65,14l29 36 -3 -14 9 14 65 44c24,41 28,14 54,35 12,9 15,40 41,44l6 -4c28,27 91,113 109,155l3 8 -5 7 51 53 55 -68 0 -7 6 1 183 -145 -6 -7 -6 -22 -47 51 -6 7 -35 29 -36 17c5,-33 51,-65 71,-75l6 -29 12 -14 53 -43 53 -37 36 -36 6 0 6 0 6 0c49,-30 79,-41 133,-68 38,-18 19,-10 69,-16 40,-5 64,-40 76,-31 29,-16 45,-35 58,-73 24,-70 -3,-76 48,-81 -15,-11 -12,-18 -3,-94 3,-30 10,-51 13,-71 16,-98 -1,-240 -12,-337 -5,-41 -6,-15 7,-48l-17 -10c-16,-52 -57,-96 -30,-142l-17 5c-20,-24 -17,-72 -47,-86l-89 -152c-60,-32 -86,-94 -145,-123 -27,-14 -43,-37 -72,-53 -19,-10 -34,-9 -45,-16 -23,-12 -9,-15 -46,-25 -63,-16 -177,-49 -242,-50 -129,-1 -233,66 -243,37z"/>
  <path class="fil1" d="M5449 3119l1 3c0,-1 -2,-2 -1,-3zm17 0l0 0zm24 -21l0 0zm852 -144l-6 7 6 -7zm0 0l0 0zm-1645 0l0 0zm-136 -29l2 2c0,0 -3,-2 -2,-2zm-30 7l-11 -3 11 3zm-313 -7l0 0zm1343 -44l0 0zm-533 0l0 0zm557 -14l0 0zm59 -29l0 0zm213 -79l0 0zm59 -15l0 0zm-1207 0l0 0zm1296 -14l2 2c-1,0 -3,-1 -2,-2zm-1497 -7l2 2c-1,0 -3,-1 -2,-2zm1859 -331l4 71 -4 -71zm-1 -231l6 114 -6 -114zm0 -231l6 172 -6 -172zm6 -58l0 0zm-2101 -94l0 0zm0 0l0 -7 0 7zm0 -7l-18 22 -39 26 4 1106c3,49 110,-1 150,4 19,2 163,4 163,3l166 22c9,6 67,9 93,24 19,12 21,19 34,19 12,1 29,-13 39,14 1,-1 130,7 112,43l-3 15c30,-24 32,-16 64,-3 45,19 44,10 75,46l0 7 12 8c29,-23 104,61 113,64 14,-10 36,-2 29,22l30 7c32,-24 14,48 37,-19 4,-13 31,-25 51,-31 16,-17 35,-24 43,-31 13,-13 -1,-8 17,-10 15,-2 11,25 23,-10l11 17c18,-42 -28,-4 13,-38 34,-22 61,-27 95,-44 44,-24 13,4 40,-16 19,-14 84,-34 97,-35 47,-2 60,-37 162,-46 40,-3 75,-12 112,-19 29,-5 24,13 57,2 26,-8 20,-14 53,-13 40,0 78,0 117,0 30,0 32,-4 54,12 33,24 13,-7 57,2l-26 17 28 3c60,42 27,-172 31,-223l6 114 -1 -980 0 -7 0 -47c-31,-11 -44,-46 -76,-52 -31,-5 -101,-53 -130,-36 -17,18 -7,696 -7,813 0,209 -3,173 -65,173l-90 -2c-2,8 15,10 -25,19 -25,6 -47,-1 -63,11l-59 15c-68,2 -104,46 -168,49 -29,1 -18,-2 -45,30l-6 0 -53 29 -17 -6 -7 20 -24 15 6 7 -183 145 -6 -1 0 7 -55 68 -51 -53 5 -7 -6 0 -21 -25 -23 -19 -3 -2 -59 -48 -6 -5 -96 -67 1 -7 -12 -8c-21,-22 -125,-59 -154,-72 -25,-12 -57,-22 -84,-34 -40,-19 -5,-12 -24,-17 -5,-1 -11,11 -33,-6l-24 -8c-21,0 -71,-5 -93,-9 -58,-9 9,-9 -75,-11 -32,0 -15,-13 -60,-8 -14,2 -37,4 -48,-20l-2 -951c-5,-59 -111,17 -120,19 -22,4 -21,-6 -40,7z"/>
  <path class="fil0" d="M4602 3920l2 2c0,0 -2,-2 -2,-2zm-183 7l0 0zm142 -43l0 0zm278 -22l0 0zm0 0l0 -7 0 7zm-461 -101l1 2c0,0 -2,-1 -1,-2zm35 -223l0 0zm491 -58l0 0zm-77 -94l0 0zm-301 0l-54 58 -23 29 -36 65 -18 28 0 15c-3,17 -20,91 -20,93 0,17 19,58 -8,85 27,51 16,-1 26,78 7,62 -3,41 -2,82l14 -26 14 34c20,23 46,55 30,70 48,8 20,-24 52,31 12,21 20,20 41,27 57,18 66,45 112,34 28,-6 19,17 69,8 47,-9 88,-27 128,-57 33,-24 -16,-21 53,-41 2,-6 12,-64 -9,-81 -54,-44 -25,-87 -56,-70l0 7c-49,14 -5,1 -18,29 -21,16 -8,-2 -34,22 -54,48 -140,56 -169,11 -8,-11 -33,-20 -57,-33l17 -10c-70,-41 -40,-42 -63,-108 -19,-58 6,-140 34,-178 8,-36 26,-68 65,-72l6 0c34,-19 63,-21 94,-14 14,3 17,13 28,15 25,7 21,-13 38,28l47 43c7,-32 20,-13 30,0l24 -50 23 -58 -23 -36 -54 -58c-18,-16 -140,-40 -159,-37 -25,4 -108,20 -142,37z"/>
  <path class="fil2" d="M5363 3819c25,-41 62,-15 109,-14 61,0 76,3 130,-15l12 -115 0 -8 -26 -7 -223 1 1 -161 263 -2 1 -122 -381 -2c14,82 10,591 3,694l389 -3 -2 -119 -274 0 -2 -127z"/>
  <polygon class="fil2" points="5774,3500 5780,3500 5908,3503 5908,4069 6021,4065 6022,3500 6201,3503 6202,3376 5724,3378 5727,3502 "/>
  <path class="fil0" d="M5001 4062c27,29 113,18 127,11 -8,-23 -6,-522 -5,-615 1,-81 25,-101 -63,-92 -79,9 -65,-3 -61,92 2,72 -6,125 -6,195 -1,51 1,391 8,409z"/>
  <path class="fil0" d="M3922 1598l2 2c0,0 -3,-1 -2,-2zm0 -14l0 0zm6 -29l0 0zm6 -22l0 0zm-6 22l-6 14 0 15 6 137c14,5 10,22 11,29 4,21 9,16 19,39 15,35 3,64 24,76 62,36 8,11 61,63 22,22 31,66 68,45 32,-27 19,-23 18,-86 -2,-156 9,-87 -15,-131 -13,-23 1,-2 -10,-42 -6,-24 -28,-49 -22,-65 -42,-34 -22,-14 -25,-64l-45 -2c-11,-39 -30,-77 -78,-50l-18 0 12 22z"/>
  <path class="fil0" d="M6460 2218l0 0zm267 -274l0 0zm-160 29l-12 29c-16,26 -19,4 -39,47 -7,16 -22,44 -27,56 -15,36 -13,85 -29,113l-11 66c19,10 38,40 65,6 6,-11 92,-41 150,-148 34,-63 25,-21 38,-88 6,-30 28,-103 25,-110l0 -14 -6 -15 0 -7c-25,-27 -55,9 -73,19 -18,10 -79,46 -81,46z"/>
  <path class="fil0" d="M6502 2370l0 0zm219 0l0 0zm-219 0l-18 7 0 14 -18 29c-34,38 -23,47 -37,75 -24,51 -10,21 -21,79l64 12c19,-15 72,-28 97,-34 25,-7 21,0 40,-23 15,-19 -1,-3 15,-18 17,-17 8,16 20,-19l0 -7 6 0c24,-21 -1,-8 23,-30 13,-12 14,-2 24,-23 2,-3 21,-52 24,-62l23 -58c-34,-61 -176,7 -178,8 -26,23 -30,13 -64,50z"/>
  <path class="fil0" d="M6531 1620c-29,55 -43,34 -44,70 -2,35 -12,52 -16,101 -3,36 -2,104 -5,117 -10,46 11,40 34,78 34,-26 19,-55 61,-56 13,-69 25,-23 42,-57 17,-36 14,-58 40,-103 24,-41 12,-226 18,-242 -25,-3 -59,2 -77,26 -28,40 -27,20 -53,66z"/>
  <path class="fil0" d="M4105 2579l17 -8 -17 8zm-88 -22l2 -14 -2 14zm17 -7l0 0zm-47 -22l0 0zm0 0l0 7 30 22 17 -7 71 29 77 0 0 -29 -71 -152 -12 -21c-22,-27 -76,-56 -107,-74 -29,-17 -125,-26 -154,7 -2,17 24,43 33,58 20,36 5,37 25,59 34,36 52,67 91,101z"/>
  <path class="fil3" d="M6159 1555l1 2c0,0 -2,-1 -1,-2zm213 -15l0 0zm-24 -14l2 2c0,0 -3,-1 -2,-2zm24 14l-95 -79c-24,-13 -158,-96 -166,-14l0 21c34,29 -21,-6 22,45 36,43 10,32 30,58 17,22 74,57 90,85 21,11 38,7 24,41l18 -5 -4 -15 132 28 1 -8c-19,-45 0,-68 -40,-104l41 -9c-10,-64 -35,-97 -36,-181 -1,-85 15,-101 36,-173l-12 -7c-49,62 -40,210 -25,292 10,55 30,46 -5,70l-11 -45z"/>
  <path class="fil0" d="M6147 1281l0 0zm0 0l47 57 24 22 6 0c33,30 8,35 42,41 22,4 37,17 58,24l19 -11c-5,-114 -20,-123 -26,-152 -7,-34 6,-34 -11,-60 -41,-60 -36,-85 -123,-138 -14,-9 -25,-4 -40,-19 -27,-27 12,-18 -26,-31 -3,44 -39,-13 -11,135 5,25 32,114 41,132z"/>
  <path class="fil0" d="M3916 2109c57,84 6,29 85,114 28,31 89,67 125,71 4,-47 -6,-87 -17,-134 -13,-58 -2,-33 -24,-90 -11,-29 5,-9 -11,-25 -22,-22 -5,9 -22,-36l-12 -14 -78 -55 -81 -39c-38,33 0,97 0,134 0,45 -17,18 0,40 26,35 3,12 35,34z"/>
  <path class="fil0" d="M4383 1079l-11 0c-31,39 4,22 -48,50l-35 80c16,47 -24,18 -29,25 -10,11 14,8 5,59 -10,55 -32,105 0,132l6 7 6 0 12 -7c17,-33 60,-21 101,-78 25,-33 23,-17 41,-57 4,-9 24,-51 35,-60l0 -14 0 -7 12 -22c-9,-20 17,-98 18,-102l4 -18c5,-14 6,35 2,-4 -1,-4 -13,-20 -19,-41l-100 57z"/>
  <path class="fil0" d="M4117 1627l0 0zm-29 -72l0 0zm0 0l0 7c16,37 -14,-7 7,22 12,18 9,5 16,43l6 0 0 7 48 22c0,-47 38,-151 47,-192 3,-16 0,-16 4,-42 6,-42 -10,-61 8,-69l-23 -51 -19 -86 -41 -66c-12,17 -25,29 -32,49 -21,61 5,19 -38,43 22,29 -38,208 17,313z"/>
  <path class="fil0" d="M4259 1497l0 0zm219 -43l0 0zm-154 -15l0 8 0 7 -6 0c-30,-14 1,5 -14,4 -14,0 10,8 -6,-2 -34,-22 25,4 -9,-8 11,34 -15,13 -30,49 -27,12 11,-5 -19,27 -15,15 -14,11 -28,31l3 24c-28,16 -1,-4 -23,-5l-4 17c33,11 -4,33 -13,56 -1,1 -3,7 -5,9 9,7 17,-1 1,41 47,6 74,4 114,-18l10 13 0 -21 41 -15c16,-17 19,-20 33,-28 37,-19 -6,-12 46,-47 35,-25 -8,17 12,-17 9,-15 18,-33 33,-45 14,-37 -5,-6 8,-36 13,-32 22,-3 10,-29l-6 -22c-37,-47 -113,17 -148,7z"/>
  <path class="fil0" d="M6413 1223l12 7c-21,72 -37,88 -36,173 1,84 26,117 36,181 -15,49 29,73 59,65l0 -44c14,-26 35,-47 37,-106 10,-241 -1,-137 -19,-276 -6,-41 -2,-20 -21,-37 -25,-23 -12,-25 -14,-36 -47,23 -34,25 -54,73z"/>
  <path class="fil4" d="M5247 4071l208 7c34,0 70,-6 97,-4 27,1 21,-4 45,-3 52,3 -2,5 34,21 9,-33 21,-23 25,-71 -10,-7 -10,-1 0,-8 0,-48 -8,-60 -29,-94 -31,18 -219,30 -244,15 -30,-53 19,-77 -20,-115l2 127 274 0 2 119 -389 3c7,-103 11,-612 -3,-694l381 2 -1 122 -263 2 -1 161 223 -1 -215 -4c-3,-34 -8,-101 5,-133l0 -7c11,-9 228,-5 248,8 7,-18 1,-8 18,-30 -7,-18 -2,-51 6,-72l0 -7c-5,-27 -8,-29 5,-42 -77,-8 -143,-8 -224,-8l-84 2c-23,-2 -62,-22 -104,14l-2 359c0,29 4,66 4,85 -2,70 -10,184 2,246z"/>
  <path class="fil4" d="M5910 4078l0 0zm291 -575l-179 -3 -1 565 -113 4 0 -566 -128 -3c-5,12 -1,13 -6,0l-47 2 -3 -124 478 -2 -1 127zm-291 575c29,21 69,-26 90,21 18,-40 21,-18 29,-49 0,0 5,-29 5,-29l0 -8 -1 -362c4,-35 8,-91 -6,-121 1,0 9,-5 11,-6 11,-7 -4,-3 15,-7l75 0c48,5 38,-10 66,6l7 -20c26,-11 17,-39 17,-74 -10,-12 -10,-2 0,-14l0 -7 -6 -7 0 -8c-4,-48 -8,-28 -101,-28 -90,-1 -264,4 -347,-4 -14,-1 -24,-2 -48,20l-1 106c7,30 1,8 12,21 3,4 17,18 28,17 30,-2 -38,-10 44,-6l105 -10c0,78 -10,539 6,569z"/>
  <path class="fil4" d="M4999 1858c11,-36 23,-13 44,-4 7,3 53,13 62,15l136 17c1,39 8,40 6,123 -1,42 0,71 0,115 -21,12 -53,10 -77,8 -9,-1 -7,-1 -15,-3 -27,-8 -99,-8 -124,-6 -48,3 -28,5 -67,-14 1,-32 15,-34 -3,-62l14 -2c6,-28 4,-39 6,-56 1,-12 1,-2 3,-23 2,-22 -11,-2 3,-29l12 -72 0 -7zm-38 189l-1 87 295 1 1 -258c-74,-10 -124,-12 -198,-32 -20,-5 -39,-18 -58,-20 -20,30 -35,177 -39,222z"/>
  <path class="fil4" d="M5064 1735l2 2c0,0 -3,-1 -2,-2zm-14 -59l0 0zm14 16c7,-37 9,-22 23,-45 10,-15 2,7 9,-24 4,-15 3,-21 6,-36 27,-12 15,-9 30,-36 1,-1 2,-3 2,-4 31,-51 25,-5 49,-57 14,-31 18,-26 41,-36l0 -7 12 -8 5 15c18,-9 8,-11 12,7 6,43 -4,226 -4,229 10,103 10,80 -103,68 -52,-6 -59,-27 -105,-39 28,-28 -15,-4 23,-27zm160 -245l0 0zm12 -8l0 0zm-134 148c-20,12 -40,63 -52,89 -11,22 -20,35 -22,59 51,23 175,52 227,47l1 -382c-41,33 -142,135 -154,187z"/>
  <path class="fil4" d="M5527 1850c4,9 4,8 0,0zm0 0l-191 30 -2 250 297 6 3 -33c-24,17 -10,28 -63,25 -23,-1 -11,3 -33,2 -95,-4 -92,-18 -202,-6l0 -238c39,-4 176,-7 203,-26 22,-16 32,-19 56,-8 3,37 -7,60 22,78l-21 -102 -69 22z"/>
  <path class="fil5" d="M5226 3037l0 -11 0 11zm-32 -47l12 1 -6 13 -6 -14zm0 0l-12 -4 12 4zm-41 -29l35 7c-19,19 -12,10 -18,8l-17 -15zm-12 0l0 0zm0 -22l0 0zm0 0l0 -7c24,0 16,-7 30,14 -19,14 -10,9 -30,-7zm-18 -7l0 0zm-83 -43l-1 7 96 67 6 -2 0 7 59 48 0 -12 17 10 -14 4 23 19 21 25 3 -8c-18,-42 -81,-128 -109,-155l-6 4 6 29 -9 -14 -9 14c-34,-16 -67,-24 -72,-78l-11 6c14,12 6,19 0,29z"/>
  <path class="fil4" d="M4094 2305l10 -8 -10 8zm-142 -101l2 -15 3 15c29,9 7,5 24,21 8,9 16,11 29,16 1,38 -7,17 2,49 20,-20 17,-23 5,-34 41,0 36,44 77,49l0 7c22,12 5,9 26,-3 9,-5 17,-11 27,-19 -25,-29 -15,-54 -12,-94l-1 -34 -25 -2c11,47 21,87 17,134 -36,-4 -97,-40 -125,-71 -79,-85 -28,-30 -85,-114l36 95z"/>
  <path class="fil5" d="M5135 4021c19,-9 6,7 6,-109 0,-45 0,-91 0,-137l-6 246z"/>
  <path class="fil5" d="M5135 3602l7 -158c2,-30 15,-17 -7,-36l0 194z"/>
  <path class="fil4" d="M4922 2802c3,8 -2,13 35,20l-1 -26c-18,8 2,1 -16,2 -16,0 -11,0 -18,4z"/>
  <path class="fil5" d="M4769 2521c-14,-21 -10,-16 -35,-13 9,17 2,8 17,11 21,5 3,9 18,2z"/>
  <path class="fil5" d="M5429 3840c0,-29 5,-23 -27,-20l27 20z"/>
  <path class="fil5" d="M4685 1605l18 0c-9,-25 6,-4 -22,-21l4 21z"/>
  <path class="fil5" d="M5792 2694c11,20 0,9 16,13l1 -19c-6,1 -14,1 -17,6z"/>
  <path class="fil5" d="M6218 3401l0 7c20,10 5,-4 16,21l1 -27 -17 -1z"/>
  <path class="fil5" d="M5241 1454l-17 0 3 16c21,-8 8,3 14,-16z"/>
  <polygon class="fil5" points="5531,2874 5549,2867 5527,2854 "/>
  <path class="fil5" d="M5527 1894c-14,-10 1,-8 -24,-6 4,4 -8,3 9,9 15,4 3,4 15,-3z"/>
  <path class="fil5" d="M5573 1512c17,18 12,15 25,7 -15,-11 -1,-7 -25,-7z"/>
  <path class="fil5" d="M4929 2592c24,-15 11,-1 16,-19 -13,3 -16,0 -16,19z"/>
  <path class="fil5" d="M4070 1569l-6 -7c-6,13 -10,5 4,28l2 -21z"/>
  <path class="fil5" d="M4892 3898c14,15 12,20 18,0 -4,-2 6,-8 -18,0z"/>
  <path class="fil5" d="M4875 2730l-23 -8c14,25 11,17 23,8z"/>
  <path class="fil5" d="M4182 2514c22,12 6,8 19,0 -20,-15 -4,-11 -19,0z"/>
  <path class="fil5" d="M5111 3119l0 -7c-15,8 -11,-12 -10,21l10 -14z"/>
  <path class="fil5" d="M4863 1937c0,9 12,16 9,0 -3,-15 -9,-13 -9,0z"/>
  <path class="fil4" d="M4851 3321c0,3 17,16 10,0 -6,-13 -12,-14 -10,0z"/>
  <path class="fil5" d="M3892 1879c1,3 17,16 10,0 -5,-13 -11,-15 -10,0z"/>
  <path class="fil5" d="M4271 1439l10 15c3,-32 0,-13 -4,-22l-6 7z"/>
  <path class="fil5" d="M5478 2932l6 -7c-9,-7 2,-16 -17,2l11 5z"/>
  <polygon class="fil6" points="4188,2550 4199,2547 4191,2528 "/>
  <polygon class="fil6" points="4466,1230 4469,1244 4484,1233 "/>
  <polygon class="fil5" points="5401,1901 5431,1899 5401,1893 "/>
  <path class="fil5" d="M5052 1310l23 -1c-20,-13 -12,-8 -23,1z"/>
  <path class="fil6" d="M4011 1930l-18 11c28,2 12,6 18,-11z"/>
  <path class="fil6" d="M5241 3199l10 21c2,-34 5,-14 -10,-21z"/>
  <polygon class="fil5" points="4135,2398 4143,2412 4147,2393 "/>
  <path class="fil5" d="M4241 1439c-1,11 9,7 8,-1 -1,-11 -5,-14 -8,1z"/>
  <path class="fil5" d="M6608 2283c-1,11 9,7 8,-1 -1,-11 -5,-14 -8,1z"/>
  <path class="fil4" d="M5135 2629c-2,11 9,7 8,-1 -1,-11 -6,-14 -8,1z"/>
  <path class="fil5" d="M5668 2579c-2,10 8,7 7,-2 -1,-11 -5,-13 -7,2z"/>
  <path class="fil5" d="M4466 1209l0 7c21,12 4,9 17,2l-17 -9z"/>
  <path class="fil5" d="M5904 1908c1,8 14,18 8,2 -3,-11 -9,-12 -8,-2z"/>
  <path class="fil5" d="M5241 3350c2,8 14,18 8,2 -3,-11 -9,-12 -8,-2z"/>
  <path class="fil5" d="M6141 1576c1,9 14,18 8,2 -4,-10 -10,-11 -8,-2z"/>
  <path class="fil5" d="M6744 1922c2,9 14,18 8,2 -3,-10 -9,-11 -8,-2z"/>
  <path class="fil6" d="M6360 1778l18 -10c-12,-1 -8,-15 -18,10z"/>
  <polygon class="fil4" points="6484,2391 6484,2377 6470,2382 "/>
  <path class="fil4" d="M5703 2506c16,-7 10,12 11,-20l-11 20z"/>
  <path class="fil5" d="M6537 1980c-11,15 -12,13 -8,28l8 -28z"/>
  <polygon class="fil5" points="5401,2752 5399,2738 5389,2757 "/>
  <polygon class="fil6" points="4691,2470 4681,2464 4686,2485 "/>
  <path class="fil5" d="M5496 2903l17 -1c-23,-15 -15,0 -17,1z"/>
  <path class="fil5" d="M5431 1274l23 -3c-13,-5 4,-8 -11,-4 -11,3 -6,2 -12,7z"/>
  <polygon class="fil6" points="4194,2579 4182,2579 4185,2592 "/>
  <path class="fil4" d="M5827 1730l-17 -3c3,3 -3,16 17,3z"/>
  <path class="fil6" d="M5383 2249l-17 -2c3,2 -3,15 17,2z"/>
  <path class="fil6" d="M5432 1578c1,0 3,1 3,2l13 -1c-16,-13 -4,-13 -16,-1z"/>
  <path class="fil5" d="M5983 1758c1,1 2,1 3,2l12 -1c-16,-13 -3,-13 -15,-1z"/>
  <path class="fil5" d="M4165 1663c-4,7 -12,-3 -2,21l2 -21z"/>
  <path class="fil5" d="M5123 3127c6,4 -2,14 17,1l-17 -1z"/>
  <path class="fil5" d="M5040 2824c-4,7 -11,-3 -1,21l1 -21z"/>
  <path class="fil5" d="M4733 3538c5,7 18,-10 6,-4 0,0 -14,-6 -6,4z"/>
  <path class="fil5" d="M4170 1187c6,7 19,-9 7,-4 0,0 -15,-6 -7,4z"/>
  <path class="fil5" d="M6579 2283c5,7 18,-9 7,-4 -1,0 -15,-6 -7,4z"/>
  <path class="fil5" d="M4561 3581c6,7 19,-9 7,-4 0,0 -15,-6 -7,4z"/>
  <path class="fil5" d="M6401 2615c6,7 19,-10 7,-4 0,0 -15,-6 -7,4z"/>
  <path class="fil4" d="M5815 1721c6,7 19,-10 7,-4 0,0 -15,-6 -7,4z"/>
  <path class="fil5" d="M4709 1872c6,7 19,-9 7,-4 0,0 -15,-6 -7,4z"/>
  <path class="fil5" d="M4425 1338c6,7 19,-9 7,-3 0,0 -15,-6 -7,3z"/>
  <path class="fil5" d="M5650 4114c5,7 18,-9 7,-4 -1,1 -15,-5 -7,4z"/>
  <path class="fil5" d="M5650 3898c5,7 18,-9 7,-4 -1,0 -15,-6 -7,4z"/>
  <path class="fil6" d="M6129 2701c6,7 19,-9 7,-4 0,0 -15,-6 -7,4z"/>
  <path class="fil6" d="M4502 1050c6,7 19,-9 7,-4 0,0 -15,-6 -7,4z"/>
  <path class="fil6" d="M6697 2449c6,7 19,-9 7,-4 0,0 -15,-6 -7,4z"/>
  <path class="fil5" d="M5514 3098c5,7 18,-10 6,-4 0,0 -14,-6 -6,4z"/>
  <path class="fil6" d="M4662 2254c5,7 18,-9 6,-4 0,0 -14,-6 -6,4z"/>
  <path class="fil5" d="M4957 1591c6,7 19,-9 7,-4 0,0 -15,-6 -7,4z"/>
  <path class="fil5" d="M6212 1396c6,7 19,-9 7,-4 0,0 -15,-6 -7,4z"/>
  <path class="fil6" d="M5904 2254c6,7 19,-9 7,-4 0,0 -15,-6 -7,4z"/>
  <path class="fil5" d="M4892 1814c6,7 19,-9 7,-4 0,1 -15,-5 -7,4z"/>
  <path class="fil5" d="M4916 1562c6,7 19,-9 7,-4 0,0 -15,-6 -7,4z"/>
  <path class="fil6" d="M5040 2254c6,7 19,-9 7,-4 0,0 -15,-6 -7,4z"/>
  <path class="fil5" d="M4845 4064c6,7 19,-9 7,-4 0,0 -15,-6 -7,4z"/>
  <path class="fil5" d="M5774 3350c6,7 19,-9 7,-4 0,0 -15,-6 -7,4z"/>
  <path class="fil5" d="M5579 1930c5,7 18,-10 7,-4 -1,0 -15,-6 -7,4z"/>
  <path class="fil5" d="M6165 1028c5,7 18,-9 6,-3 0,0 -14,-6 -6,3z"/>
  <path class="fil5" d="M4094 1649c5,6 18,-10 6,-4 0,0 -14,-6 -6,4z"/>
  <path class="fil5" d="M6194 1411c6,7 19,-10 7,-4 0,0 -15,-6 -7,4z"/>
  <path class="fil5" d="M5715 3350c6,7 19,-9 7,-4 0,0 -15,-6 -7,4z"/>
  <path class="fil5" d="M5484 1641c6,7 19,-9 7,-4 0,1 -15,-5 -7,4z"/>
  <path class="fil5" d="M5703 1814c6,7 19,-9 7,-4 0,1 -15,-5 -7,4z"/>
  <path class="fil5" d="M4733 2752l17 -1c-20,-13 -11,-5 -17,1z"/>
  <path class="fil5" d="M4662 3516l-18 1c20,13 11,4 18,-1z"/>
  <path class="fil5" d="M6354 1353l1 21c10,-24 3,-13 -1,-21z"/>
  <path class="fil5" d="M4657 2333l5 -28c-8,7 -5,24 -5,28z"/>
  <path class="fil5" d="M5142 3659l6 -28c-2,2 -3,2 -4,5 0,2 -1,4 -2,5 -1,16 -1,7 0,18z"/>
  <path class="fil5" d="M4764 4120l-1 -18c-7,13 -11,0 1,18z"/>
  <path class="fil5" d="M4768 1749l10 7c-3,-18 3,-16 -10,-7z"/>
  <path class="fil5" d="M6484 2348l6 -13c-16,5 -13,-3 -6,13z"/>
  <path class="fil4" d="M5034 1324l6 -12c-15,4 -13,-4 -6,12z"/>
  <path class="fil5" d="M5383 3170l-5 12c15,-4 13,4 5,-12z"/>
  <path class="fil6" d="M6231 1086l5 -21c-5,7 -7,-10 -5,21z"/>
  <path class="fil5" d="M6397 2556l5 -20c-5,7 -8,-10 -5,20z"/>
  <path class="fil5" d="M4231 1446l5 -21c-5,7 -7,-9 -5,21z"/>
  <path class="fil5" d="M3876 2448l5 -21c-5,8 -7,-9 -5,21z"/>
  <path class="fil6" d="M6456 1835l5 -20c-5,7 -7,-10 -5,20z"/>
  <path class="fil6" d="M4709 1843c5,22 -6,10 11,13l-11 -13z"/>
  <path class="fil4" d="M6165 1713c-5,-21 6,-9 -12,-12l12 12z"/>
  <path class="fil5" d="M5703 1850c18,-6 8,8 10,-13l-10 13z"/>
  <polygon class="fil6" points="4395,3581 4395,3566 4388,3573 "/>
  <polygon class="fil5" points="6218,3429 6225,3423 6218,3415 "/>
  <polygon class="fil5" points="5804,1475 5798,1466 5792,1475 "/>
  <polygon class="fil6" points="4383,1079 4378,1070 4372,1079 "/>
  <path class="fil5" d="M4011 1930l12 -12c-15,1 -7,-4 -12,12z"/>
  <path class="fil5" d="M4224 1353l9 15c-1,-18 4,-9 -9,-15z"/>
  <path class="fil4" d="M5934 2629l-12 12c14,-2 7,4 12,-12z"/>
  <path class="fil5" d="M4910 2571l18 -2c-31,-7 -10,-4 -18,2z"/>
  <path class="fil5" d="M4662 2096c0,16 7,1 3,0 0,0 -3,-19 -3,0z"/>
  <path class="fil5" d="M4786 1483c0,16 7,1 4,0 -1,0 -4,-19 -4,0z"/>
  <path class="fil6" d="M4413 1338c0,17 7,2 4,0 0,0 -4,-18 -4,0z"/>
  <path class="fil4" d="M4910 2802c0,17 7,1 4,0 0,0 -4,-18 -4,0z"/>
  <path class="fil5" d="M5088 1663c0,17 7,1 3,0 0,0 -3,-19 -3,0z"/>
  <path class="fil5" d="M5052 1886c0,17 7,2 4,0 0,0 -4,-18 -4,0z"/>
  <path class="fil5" d="M6561 1129c0,17 7,1 4,0 0,0 -4,-18 -4,0z"/>
  <path class="fil5" d="M6277 1129c0,17 7,1 4,0 0,0 -4,-18 -4,0z"/>
  <path class="fil5" d="M4099 2341c0,16 8,1 4,0 0,0 -4,-19 -4,0z"/>
  <path class="fil5" d="M4579 1822c0,16 7,1 3,0 0,0 -3,-19 -3,0z"/>
  <path class="fil5" d="M6188 1627c0,17 8,1 4,0 0,0 -4,-19 -4,0z"/>
  <path class="fil5" d="M4064 1540c0,17 7,1 4,0 0,0 -4,-18 -4,0z"/>
  <path class="fil6" d="M4898 3437c0,16 8,1 4,0 0,0 -4,-19 -4,0z"/>
  <path class="fil5" d="M5709 1908c0,17 7,1 4,0 0,0 -4,-19 -4,0z"/>
  <path class="fil5" d="M5727 1418c0,17 7,1 3,0 0,0 -3,-19 -3,0z"/>
  <path class="fil5" d="M5425 3184c0,17 7,1 4,0 -1,0 -4,-18 -4,0z"/>
  <path class="fil5" d="M6206 3538c0,16 7,1 4,0 0,0 -4,-19 -4,0z"/>
  <path class="fil5" d="M5638 3538c0,16 7,1 4,0 0,0 -4,-19 -4,0z"/>
  <path class="fil5" d="M6330 1468c0,17 8,1 4,0 0,0 -4,-18 -4,0z"/>
  <path class="fil4" d="M4366 3725c0,17 7,1 3,0 0,0 -3,-19 -3,0z"/>
  <path class="fil4" d="M5620 2817c0,16 7,1 4,0 0,0 -4,-19 -4,0z"/>
  <path class="fil5" d="M5662 3415c0,17 7,1 3,0 0,0 -3,-19 -3,0z"/>
  <path class="fil5" d="M6744 2355c0,17 8,1 4,0 0,0 -4,-18 -4,0z"/>
  <path class="fil6" d="M5750 1418c0,17 8,1 4,0 0,0 -4,-19 -4,0z"/>
  <path class="fil5" d="M5591 2283c0,17 7,1 3,0 0,0 -3,-19 -3,0z"/>
  <path class="fil5" d="M4975 2096c0,16 8,1 4,0 0,0 -4,-19 -4,0z"/>
  <path class="fil5" d="M4957 1605c0,17 8,1 4,0 0,0 -4,-18 -4,0z"/>
  <path class="fil5" d="M6378 1238c0,16 7,1 3,0 0,0 -3,-19 -3,0z"/>
  <path class="fil6" d="M5348 2831c0,17 7,1 4,0 0,0 -4,-19 -4,0z"/>
  <path class="fil6" d="M5330 3242c0,17 8,1 4,0 0,0 -4,-19 -4,0z"/>
  <path class="fil5" d="M5898 1591c0,17 8,1 4,0 0,0 -4,-19 -4,0z"/>
  <path class="fil5" d="M4904 1569c0,17 7,1 4,0 0,0 -4,-18 -4,0z"/>
  <path class="fil6" d="M6236 1403c0,17 7,1 3,0 0,0 -3,-18 -3,0z"/>
  <path class="fil4" d="M5739 1425c0,17 7,1 3,0 0,0 -3,-19 -3,0z"/>
  <path class="fil6" d="M4567 3559c0,17 7,1 4,0 0,0 -4,-18 -4,0z"/>
  <path class="fil5" d="M3934 1807c0,17 7,1 3,0 0,0 -3,-18 -3,0z"/>
  <polygon class="fil4" points="5644,2744 5638,2744 5641,2759 "/>
  <polygon class="fil5" points="5407,2752 5413,2752 5410,2737 "/>
  <polygon class="fil5" points="3957,2204 3952,2204 3954,2218 "/>
  <polygon class="fil5" points="5135,2665 5129,2658 5129,2665 "/>
  <polygon class="fil6" points="6650,2485 6644,2485 6644,2492 "/>
  <polygon class="fil6" points="6218,3401 6212,3393 6212,3401 "/>
  <polygon class="fil5" points="4170,1656 4165,1656 4165,1663 "/>
  <polygon class="fil6" points="4271,1439 4271,1432 4265,1432 "/>
  <polygon class="fil5" points="5898,1836 5898,1829 5892,1836 "/>
  <polygon class="fil6" points="4324,1454 4324,1447 4318,1454 "/>
  <path class="fil6" d="M5608 2622l0 7c10,-7 10,0 0,-7z"/>
  <path class="fil5" d="M5656 4013l0 8c9,-7 9,-1 0,-8z"/>
  <polygon class="fil6" points="4094,2312 4088,2314 4092,2319 "/>
  <polygon class="fil5" points="4786,4114 4791,4112 4788,4107 "/>
  <polygon class="fil5" points="5792,1475 5786,1477 5790,1483 "/>
  <polygon class="fil5" points="4526,3386 4524,3380 4520,3384 "/>
  <polygon class="fil5" points="4147,2211 4152,2209 4149,2204 "/>
  <polygon class="fil5" points="5573,1512 5571,1505 5567,1509 "/>
  <polygon class="fil6" points="4194,1187 4193,1180 4188,1185 "/>
  <polygon class="fil5" points="6537,1980 6543,1978 6539,1973 "/>
  <polygon class="fil6" points="6531,1620 6530,1613 6526,1617 "/>
  <polygon class="fil5" points="6105,1468 6104,1462 6099,1466 "/>
  <polygon class="fil5" points="4212,1555 4210,1548 4206,1552 "/>
  <polygon class="fil5" points="3987,2535 3982,2537 3985,2543 "/>
  <polygon class="fil6" points="6555,1995 6560,1993 6557,1987 "/>
  <polygon class="fil6" points="4650,2096 4651,2102 4656,2098 "/>
  <polygon class="fil5" points="4182,1216 4188,1214 4184,1209 "/>
  <polygon class="fil6" points="4289,1209 4287,1202 4283,1206 "/>
  <polygon class="fil5" points="6111,1447 6106,1448 6109,1454 "/>
  <polygon class="fil6" points="4449,3473 4447,3466 4443,3470 "/>
  <polygon class="fil5" points="6099,1490 6105,1488 6101,1483 "/>
  <polygon class="fil5" points="6194,3523 6196,3530 6200,3526 "/>
  <polygon class="fil6" points="4881,3538 4882,3544 4886,3540 "/>
  <polygon class="fil5" points="4857,3588 4858,3595 4863,3590 "/>
  <polygon class="fil6" points="4744,1540 4743,1534 4739,1538 "/>
  <polygon class="fil6" points="4088,1562 4082,1564 4086,1569 "/>
  <polygon class="fil5" points="4957,1649 4956,1642 4952,1646 "/>
  <polygon class="fil5" points="5638,1649 5639,1655 5644,1651 "/>
  <polygon class="fil5" points="6484,1649 6486,1655 6490,1651 "/>
  <polygon class="fil5" points="4123,1129 4118,1131 4121,1137 "/>
  <polygon class="fil4" points="4295,1692 4296,1698 4301,1694 "/>
  <polygon class="fil5" points="4756,1735 4758,1742 4762,1737 "/>
  <polygon class="fil6" points="4478,1187 4484,1185 4480,1180 "/>
  <polygon class="fil5" points="4768,1749 4763,1751 4766,1757 "/>
  <polygon class="fil5" points="4804,1749 4798,1751 4802,1757 "/>
  <polygon class="fil5" points="4194,1194 4189,1196 4192,1201 "/>
  <polygon class="fil5" points="6407,1201 6413,1200 6409,1194 "/>
  <polygon class="fil5" points="6407,1201 6402,1203 6405,1209 "/>
  <polygon class="fil6" points="5892,1836 5887,1838 5890,1843 "/>
  <polygon class="fil6" points="4886,1930 4885,1923 4881,1927 "/>
  <polygon class="fil5" points="6727,1930 6732,1928 6729,1923 "/>
  <polygon class="fil5" points="6561,1930 6563,1936 6567,1932 "/>
  <polygon class="fil6" points="6567,1973 6565,1966 6561,1971 "/>
  <polygon class="fil5" points="4064,1980 4065,1987 4070,1983 "/>
  <polygon class="fil5" points="4040,1995 4046,1993 4042,1987 "/>
  <polygon class="fil5" points="6354,1353 6352,1346 6348,1350 "/>
  <polygon class="fil5" points="4289,1425 4290,1432 4295,1427 "/>
  <polygon class="fil6" points="4147,2211 4141,2213 4145,2218 "/>
  <polygon class="fil6" points="4993,2254 4998,2252 4995,2247 "/>
  <polygon class="fil5" points="6573,2269 6567,2270 6571,2276 "/>
  <polygon class="fil6" points="6360,1396 6358,1390 6354,1394 "/>
  <polygon class="fil5" points="6484,2348 6486,2354 6490,2350 "/>
  <polygon class="fil6" points="4135,2398 4130,2400 4133,2406 "/>
  <polygon class="fil5" points="4691,2470 4697,2469 4693,2463 "/>
  <polygon class="fil5" points="4585,2564 4590,2562 4587,2557 "/>
  <polygon class="fil5" points="4194,2579 4200,2577 4196,2571 "/>
  <polygon class="fil5" points="5129,2658 5128,2651 5123,2655 "/>
  <polygon class="fil5" points="4721,2658 4715,2660 4719,2665 "/>
  <polygon class="fil6" points="4342,1418 4337,1420 4340,1425 "/>
  <polygon class="fil6" points="5129,2665 5124,2667 5127,2672 "/>
  <polygon class="fil5" points="5230,2817 5231,2823 5236,2819 "/>
  <polygon class="fil6" points="5549,2817 5551,2823 5555,2819 "/>
  <polygon class="fil5" points="5549,2867 5551,2874 5555,2869 "/>
  <polygon class="fil5" points="5478,2903 5480,2910 5484,2905 "/>
  <polygon class="fil6" points="4863,3011 4857,3013 4861,3018 "/>
  <polygon class="fil5" points="4975,3054 4974,3048 4969,3052 "/>
  <polygon class="fil5" points="5058,1454 5053,1456 5056,1461 "/>
  <polygon class="fil6" points="6277,1461 6282,1459 6279,1454 "/>
  <polygon class="fil6" points="5307,3249 5305,3243 5301,3247 "/>
  <polygon class="fil5" points="5312,3249 5318,3247 5314,3242 "/>
  <polygon class="fil6" points="4472,3444 4471,3437 4466,3441 "/>
  <polygon class="fil5" points="4774,1475 4773,1469 4768,1473 "/>
  <polygon class="fil6" points="4881,3444 4886,3442 4883,3437 "/>
  <polygon class="fil5" points="5644,3494 5645,3501 5650,3497 "/>
  <polygon class="fil6" points="4774,1475 4776,1482 4780,1478 "/>
  <polygon class="fil5" points="5804,1475 5805,1482 5809,1478 "/>
  <polygon class="fil5" points="4721,3530 4726,3528 4723,3523 "/>
  <polygon class="fil4" points="5484,2874 5486,2881 5490,2877 "/>
  <polygon class="fil5" points="5378,2802 5376,2796 5372,2800 "/>
  <polygon class="fil5" points="5105,4114 5111,4112 5107,4107 "/>
  <polygon class="fil5" points="6094,2716 6092,2709 6088,2713 "/>
  <polygon class="fil6" points="4780,3545 4775,3547 4778,3552 "/>
  <polygon class="fil5" points="4147,2290 4148,2297 4153,2293 "/>
  <polygon class="fil5" points="5608,2283 5607,2276 5602,2281 "/>
  <polygon class="fil6" points="5478,2247 5480,2254 5484,2249 "/>
  <polygon class="fil6" points="4099,2377 4101,2383 4105,2379 "/>
  <polygon class="fil5" points="4324,1439 4323,1433 4318,1437 "/>
  <polygon class="fil5" points="5443,2961 5441,2954 5437,2958 "/>
  <polygon class="fil5" points="5265,3213 5260,3215 5263,3220 "/>
  <polygon class="fil5" points="6324,1425 6326,1432 6330,1427 "/>
  <polygon class="fil6" points="5638,1649 5636,1642 5632,1646 "/>
  <polygon class="fil5" points="5614,3667 5620,3665 5616,3660 "/>
  <polygon class="fil4" points="6466,2420 6465,2413 6460,2418 "/>
  <polygon class="fil6" points="4324,1129 4323,1123 4318,1127 "/>
  <polygon class="fil6" points="4975,2045 4977,2052 4981,2048 "/>
  <polygon class="fil6" points="4111,2398 4117,2397 4113,2391 "/>
  <polygon class="fil5" points="5585,2391 5579,2393 5583,2398 "/>
  <polygon class="fil6" points="4549,3588 4551,3595 4555,3590 "/>
  <polygon class="fil5" points="4780,3588 4781,3595 4786,3590 "/>
  <polygon class="fil5" points="6472,2586 6467,2588 6470,2593 "/>
  <polygon class="fil6" points="6744,2312 6750,2310 6746,2305 "/>
  <polygon class="fil5" points="4111,1973 4113,1980 4117,1975 "/>
  <polygon class="fil5" points="6099,1490 6094,1492 6097,1497 "/>
  <polygon class="fil5" points="4904,1548 4906,1554 4910,1550 "/>
  <polygon class="fil5" points="5614,3675 5616,3681 5620,3677 "/>
  <polygon class="fil5" points="6194,1338 6189,1340 6192,1346 "/>
  <polygon class="fil6" points="4839,3848 4838,3841 4833,3845 "/>
  <polygon class="fil6" points="4821,3884 4820,3877 4815,3881 "/>
  <polygon class="fil5" points="4768,3898 4763,3900 4766,3905 "/>
  <polygon class="fil5" points="5247,4071 5242,4073 5245,4078 "/>
  <polygon class="fil5" points="4786,1504 4784,1498 4780,1502 "/>
  <polygon class="fil5" points="4342,1411 4341,1404 4336,1408 "/>
  <polygon class="fil5" points="4052,2009 4058,2007 4054,2002 "/>
  <polygon class="fil6" points="5105,4114 5100,4116 5103,4122 "/>
  <polygon class="fil5" points="6165,1713 6166,1720 6170,1716 "/>
  <polygon class="fil5" points="4585,2564 4579,2566 4583,2571 "/>
  <polygon class="fil6" points="5638,2838 5636,2832 5632,2836 "/>
  <polygon class="fil6" points="5064,1692 5065,1698 5070,1694 "/>
  <polygon class="fil6" points="6117,1014 6116,1007 6111,1012 "/>
  <polygon class="fil5" points="5561,1468 5556,1470 5559,1475 "/>
  <polygon class="fil5" points="5845,1540 5850,1539 5847,1533 "/>
  <polygon class="fil6" points="3922,1569 3920,1563 3916,1567 "/>
  <polygon class="fil6" points="4336,1656 4338,1662 4342,1658 "/>
  <polygon class="fil6" points="5389,1461 5384,1463 5387,1468 "/>
  <polygon class="fil5" points="4082,1649 4087,1647 4084,1641 "/>
  <polygon class="fil5" points="4721,3530 4715,3532 4719,3538 "/>
  <polygon class="fil5" points="4679,1612 4674,1614 4677,1620 "/>
  <polygon class="fil5" points="3928,1721 3922,1722 3926,1728 "/>
  <polygon class="fil5" points="4472,1432 4478,1430 4474,1425 "/>
  <polygon class="fil4" points="6514,2290 6515,2297 6520,2293 "/>
  <path class="fil5" d="M4527 3724l0 -18c-2,16 -1,6 0,18z"/>
  <path class="fil5" d="M6218 3386c0,1 2,-3 2,-2l0 0c-1,0 -3,1 -2,2z"/>
  <path class="fil5" d="M5774 3328c1,1 2,-3 2,-2l0 0c0,0 -3,2 -2,2z"/>
  <path class="fil5" d="M6188 3321c1,1 2,-3 2,-2l0 0c0,0 -2,2 -2,2z"/>
  <path class="fil5" d="M6366 1490c0,1 1,-3 1,-2l0 0c0,0 -2,1 -1,2z"/>
  <path class="fil5" d="M5389 1526c1,1 2,-3 2,-2l0 0c0,0 -2,1 -2,2z"/>
  <path class="fil5" d="M6567 1540c0,1 2,-3 2,-2l0 0c0,0 -3,2 -2,2z"/>
  <path class="fil5" d="M6549 1944c1,1 2,-3 2,-2l0 0c0,0 -2,1 -2,2z"/>
  <path class="fil5" d="M6437 1129c0,1 1,-3 1,-2l0 0c0,0 -2,2 -1,2z"/>
  <path class="fil5" d="M6478 1980c1,1 2,-3 2,-2l0 0c0,0 -2,1 -2,2z"/>
  <path class="fil5" d="M6496 2348c0,1 2,-3 2,-2l0 0c0,0 -3,1 -2,2z"/>
  <path class="fil5" d="M6567 1959c0,0 2,-4 2,-3l0 0c0,1 -3,2 -2,3z"/>
  <path class="fil6" d="M6283 1432c0,1 2,-3 2,-2l0 0c0,0 -3,1 -2,2z"/>
  <path class="fil5" d="M6372 1519c0,0 1,-3 1,-2l0 0c0,0 -2,1 -1,2z"/>
  <path class="fil5" d="M6336 1432c1,1 2,-3 2,-2l0 0c0,0 -2,1 -2,2z"/>
  <path class="fil5" d="M6419 2600c1,1 2,-3 2,-2l0 0c0,0 -3,2 -2,2z"/>
  <path class="fil5" d="M5762 3011c1,1 2,-3 2,-2l0 0c0,0 -2,1 -2,2z"/>
  <path class="fil5" d="M6301 1461c0,1 1,-3 1,-2l0 0c0,0 -2,1 -1,2z"/>
  <path class="fil5" d="M5413 3163c1,0 2,-4 2,-3l0 0c0,1 -3,2 -2,3z"/>
  <path class="fil5" d="M6389 2579c1,0 2,-4 2,-3l0 0c0,1 -2,2 -2,3z"/>
  <path class="fil6" d="M5253 3249c1,1 2,-3 2,-2l0 0c0,0 -2,1 -2,2z"/>
  <path class="fil5" d="M5289 3249c0,1 2,-3 2,-2l0 0c-1,0 -3,1 -2,2z"/>
  <path class="fil6" d="M6431 1165l2 -2c-1,0 -3,2 -2,2z"/>
  <path class="fil5" d="M6236 2954l1 -3c0,1 -2,2 -1,3z"/>
  <path class="fil6" d="M6147 1302l2 -2c-1,0 -3,2 -2,2z"/>
  <path class="fil5" d="M6324 1216l2 -2c0,0 -2,1 -2,2z"/>
  <path class="fil5" d="M6182 1021l2 -2c0,0 -2,2 -2,2z"/>
  <path class="fil5" d="M6182 1713l2 -2c0,0 -2,2 -2,2z"/>
  <path class="fil5" d="M6147 1735l2 -2c-1,0 -3,1 -2,2z"/>
  <path class="fil5" d="M4094 2052l1 -2c0,0 -2,2 -1,2z"/>
  <path class="fil5" d="M6040 4086l2 -3c0,0 -2,2 -2,3z"/>
  <path class="fil5" d="M6218 3545l2 -2c-1,0 -3,1 -2,2z"/>
  <path class="fil5" d="M3827 2355l2 -2c0,0 -2,1 -2,2z"/>
  <path class="fil5" d="M6431 2463l2 -2c-1,0 -3,2 -2,2z"/>
  <path class="fil5" d="M5662 3386l1 -2c0,0 -2,1 -1,2z"/>
  <path class="fil5" d="M5194 3191l2 -2c0,0 -2,2 -2,2z"/>
  <path class="fil5" d="M5395 3191l2 -2c0,0 -2,2 -2,2z"/>
  <path class="fil6" d="M4295 1165l2 -2c-1,0 -3,2 -2,2z"/>
  <path class="fil5" d="M6312 1187l2 -2c0,0 -2,1 -2,2z"/>
  <path class="fil5" d="M4508 1036l2 -2c-1,0 -3,1 -2,2z"/>
  <path class="fil6" d="M4437 1036l2 -2c-1,0 -3,1 -2,2z"/>
  <path class="fil5" d="M4768 1360l2 -2c0,0 -2,1 -2,2z"/>
  <path class="fil5" d="M5111 2629l2 -2c0,0 -2,1 -2,2z"/>
  <path class="fil5" d="M4472 1512l2 -3c0,1 -2,2 -2,3z"/>
  <path class="fil6" d="M5981 2607l2 -2c0,0 -2,2 -2,2z"/>
  <path class="fil5" d="M5662 1360l1 -2c0,0 -2,1 -1,2z"/>
  <path class="fil5" d="M5756 2737l2 -2c0,0 -2,2 -2,2z"/>
  <path class="fil5" d="M5383 2780l2 -2c0,0 -2,2 -2,2z"/>
  <path class="fil5" d="M5561 1490l2 -2c0,0 -3,1 -2,2z"/>
  <path class="fil5" d="M5383 1512l2 -3c0,1 -2,2 -2,3z"/>
  <path class="fil5" d="M6750 1908l2 -2c0,0 -2,1 -2,2z"/>
  <path class="fil5" d="M3963 2557l2 -2c0,0 -2,1 -2,2z"/>
  <path class="fil5" d="M3993 2557l2 -2c0,0 -3,1 -2,2z"/>
  <path class="fil5" d="M6099 1238l2 -3c0,1 -2,2 -2,3z"/>
  <path class="fil5" d="M6117 1238l2 -3c0,1 -2,2 -2,3z"/>
  <path class="fil5" d="M3922 2189l2 -2c0,0 -3,2 -2,2z"/>
  <path class="fil5" d="M5567 1324l2 -2c0,0 -3,1 -2,2z"/>
  <path class="fil5" d="M4952 2593l1 -2c0,0 -2,1 -1,2z"/>
  <path class="fil5" d="M4165 2622l1 -2c0,0 -2,1 -1,2z"/>
  <path class="fil5" d="M5023 1865l1 -2c0,0 -2,1 -1,2z"/>
  <path class="fil5" d="M4378 1411l1 -3c0,1 -2,2 -1,3z"/>
  <path class="fil5" d="M6348 1411l2 -3c0,1 -3,2 -2,3z"/>
  <path class="fil5" d="M5123 2636l2 -2c0,0 -2,2 -2,2z"/>
  <path class="fil5" d="M5111 2644l2 -3c0,0 -2,2 -2,3z"/>
  <path class="fil6" d="M6117 1418l2 -2c0,0 -2,1 -2,2z"/>
  <path class="fil5" d="M4668 2059l1 -2c0,0 -2,2 -1,2z"/>
  <path class="fil6" d="M6348 1432l2 -2c0,0 -3,1 -2,2z"/>
  <path class="fil5" d="M6153 1021l1 -2c0,0 -2,2 -1,2z"/>
  <path class="fil6" d="M5851 2744l2 -2c0,0 -3,2 -2,2z"/>
  <path class="fil5" d="M4963 1627l2 -2c0,0 -2,1 -2,2z"/>
  <path class="fil5" d="M5993 2961l2 -2c0,0 -3,1 -2,2z"/>
  <path class="fil5" d="M4668 2319l1 -2c0,0 -2,1 -1,2z"/>
  <path class="fil5" d="M4555 2968l2 -2c0,0 -2,1 -2,2z"/>
  <path class="fil6" d="M5804 3011l1 -2c0,0 -2,1 -1,2z"/>
  <path class="fil5" d="M4845 3026l2 -3c0,1 -3,2 -2,3z"/>
  <path class="fil5" d="M6502 2333l2 -2c-1,0 -3,2 -2,2z"/>
  <path class="fil5" d="M5591 2341l1 -2c0,0 -2,1 -1,2z"/>
  <path class="fil5" d="M6502 2052l2 -2c-1,0 -3,2 -2,2z"/>
  <path class="fil5" d="M5520 3119l1 -2c0,0 -2,2 -1,2z"/>
  <path class="fil5" d="M6472 2362l2 -2c0,0 -2,2 -2,2z"/>
  <path class="fil5" d="M4668 3336l1 -2c0,0 -2,1 -1,2z"/>
  <path class="fil5" d="M4857 3379l2 -2c0,0 -3,1 -2,2z"/>
  <path class="fil6" d="M5638 2817l2 -3c0,1 -3,2 -2,3z"/>
  <path class="fil5" d="M6484 2052l2 -2c0,0 -3,2 -2,2z"/>
  <path class="fil6" d="M5709 2398l2 -2c0,0 -3,2 -2,2z"/>
  <path class="fil5" d="M3869 2406l1 -3c0,1 -2,2 -1,3z"/>
  <path class="fil5" d="M4526 3739l1 -2c0,0 -2,2 -1,2z"/>
  <path class="fil5" d="M4662 2406l1 -3c0,1 -2,2 -1,3z"/>
  <path class="fil5" d="M5904 2420l2 -2c0,0 -2,1 -2,2z"/>
  <path class="fil5" d="M6224 3523l1 -2c0,0 -2,1 -1,2z"/>
  <path class="fil6" d="M5744 3545l2 -2c0,0 -2,1 -2,2z"/>
  <path class="fil5" d="M5697 2449l2 -2c0,0 -2,1 -2,2z"/>
  <path class="fil5" d="M5981 2593l2 -2c0,0 -2,1 -2,2z"/>
  <path class="fil5" d="M3928 2204l2 -2c0,0 -3,1 -2,2z"/>
  <path class="fil5" d="M5431 1540l2 -2c-1,0 -3,2 -2,2z"/>
  <path class="fil5" d="M5620 2838l2 -2c0,0 -2,1 -2,2z"/>
  <path class="fil5" d="M3928 2507l2 -3c0,0 -3,2 -2,3z"/>
  <path class="fil6" d="M4206 1540l2 -2c0,0 -3,2 -2,2z"/>
  <path class="fil5" d="M4395 3934l2 -2c0,0 -2,1 -2,2z"/>
  <path class="fil6" d="M6650 2507l2 -3c-1,0 -3,2 -2,3z"/>
  <path class="fil5" d="M5762 2514l2 -2c0,0 -2,1 -2,2z"/>
  <path class="fil5" d="M4401 3949l2 -3c0,1 -2,2 -2,3z"/>
  <path class="fil5" d="M6401 2514l2 -2c0,0 -2,1 -2,2z"/>
  <path class="fil5" d="M5904 1930l2 -2c0,0 -2,1 -2,2z"/>
  <path class="fil5" d="M5111 4100l2 -2c0,0 -2,1 -2,2z"/>
  <path class="fil5" d="M4768 1504l2 -2c0,0 -2,2 -2,2z"/>
  <path class="fil6" d="M6040 4071l2 -2c0,0 -2,1 -2,2z"/>
  <path class="fil5" d="M5437 1562l2 -2c-1,0 -3,1 -2,2z"/>
  <path class="fil5" d="M5614 2788l2 -2c0,0 -2,1 -2,2z"/>
  <path class="fil6" d="M5348 2254l2 -2c0,0 -3,1 -2,2z"/>
  <path class="fil5" d="M5810 2744l1 -2c0,0 -2,2 -1,2z"/>
  <path class="fil5" d="M5969 2968l2 -2c0,0 -2,1 -2,2z"/>
  <path class="fil6" d="M5490 2600l2 -2c0,0 -3,2 -2,2z"/>
  <path class="fil5" d="M5863 2514l2 -2c-1,0 -3,1 -2,2z"/>
  <path class="fil5" d="M5863 1800l2 -2c-1,0 -3,1 -2,2z"/>
  <path class="fil5" d="M6324 1771l2 -2c0,0 -2,1 -2,2z"/>
  <path class="fil6" d="M4094 1663l1 -2c0,0 -2,1 -1,2z"/>
  <path class="fil5" d="M5094 1699l1 -2c0,0 -2,1 -1,2z"/>
  <path class="fil5" d="M6259 1677l2 -2c0,0 -2,2 -2,2z"/>
  <path class="fil5" d="M4999 1526l2 -2c0,0 -3,1 -2,2z"/>
  <path class="fil5" d="M4946 1526l1 -2c0,0 -2,1 -1,2z"/>
  <path class="fil5" d="M5076 1699l2 -2c-1,0 -3,1 -2,2z"/>
  <path class="fil5" d="M4910 2586l2 -2c0,0 -2,1 -2,2z"/>
  <path class="fil5" d="M4561 3595l2 -2c0,0 -3,2 -2,2z"/>
  <path class="fil5" d="M4650 2261l2 -2c-1,0 -3,2 -2,2z"/>
  <path class="fil5" d="M3821 2283l2 -2c0,0 -2,1 -2,2z"/>
  <path class="fil5" d="M4123 2326l2 -2c0,0 -2,2 -2,2z"/>
  <path class="fil5" d="M5662 3530l1 -2c0,0 -2,2 -1,2z"/>
  <path class="fil5" d="M4881 2370l1 -3c0,1 -2,2 -1,3z"/>
  <path class="fil5" d="M4863 2391l2 -2c-1,0 -3,1 -2,2z"/>
  <path class="fil5" d="M4147 2434l2 -2c-1,0 -3,2 -2,2z"/>
  <path class="fil5" d="M4875 1807l1 -2c0,0 -2,1 -1,2z"/>
  <path class="fil5" d="M5537 2478l2 -2c0,0 -2,1 -2,2z"/>
  <path class="fil6" d="M6738 2391l2 -2c0,0 -2,1 -2,2z"/>
  <path class="fil5" d="M6591 1937l1 -2c0,0 -2,1 -1,2z"/>
  <path class="fil5" d="M4490 4049l2 -2c0,0 -3,2 -2,2z"/>
  <path class="fil5" d="M5662 2564l1 -2c0,0 -2,1 -1,2z"/>
  <path class="fil5" d="M4662 2283l1 -2c0,0 -2,1 -1,2z"/>
  <path class="fil5" d="M6632 2218l2 -2c0,0 -3,1 -2,2z"/>
  <path class="fil5" d="M4437 3985l2 -3c-1,1 -3,2 -2,3z"/>
  <path class="fil6" d="M5886 1872l2 -2c0,0 -2,1 -2,2z"/>
  <path class="fil5" d="M5567 1872l2 -2c0,0 -3,1 -2,2z"/>
  <path class="fil5" d="M5792 1742l2 -2c-1,0 -3,2 -2,2z"/>
  <path class="fil5" d="M5650 1656l2 -2c-1,0 -3,1 -2,2z"/>
  <path class="fil6" d="M4265 1468l2 -2c0,0 -2,2 -2,2z"/>
  <path class="fil6" d="M4727 1555l1 -2c0,0 -2,1 -1,2z"/>
  <path class="fil5" d="M4496 1014l2 -2c0,0 -3,1 -2,2z"/>
  <path class="fil5" d="M5135 3386l2 -2c0,0 -3,1 -2,2z"/>
  <path class="fil5" d="M4531 2954l2 -3c0,1 -2,2 -2,3z"/>
  <path class="fil6" d="M5241 3256l2 -2c0,0 -2,2 -2,2z"/>
  <path class="fil6" d="M4993 2016l2 -2c0,0 -3,2 -2,2z"/>
  <path class="fil5" d="M6656 2189l1 -2c0,0 -2,2 -1,2z"/>
  <path class="fil6" d="M4922 2766l2 -2c0,0 -3,1 -2,2z"/>
  <path class="fil5" d="M4194 1245l2 -2c0,0 -2,1 -2,2z"/>
  <path class="fil5" d="M4141 2333l2 -2c0,0 -3,2 -2,2z"/>
  <path class="fil5" d="M4656 2052l1 -2c0,0 -2,2 -1,2z"/>
  <path class="fil5" d="M4176 1627l2 -2c0,0 -2,1 -2,2z"/>
  <path class="fil5" d="M4762 2744l2 -2c0,0 -2,2 -2,2z"/>
  <path class="fil5" d="M4478 2701l2 -2c0,0 -2,1 -2,2z"/>
  <path class="fil5" d="M6656 2211l1 -2c0,0 -2,1 -1,2z"/>
  <path class="fil5" d="M4531 2708l2 -2c0,0 -2,2 -2,2z"/>
  <path class="fil5" d="M4514 1064l1 -2c0,0 -2,2 -1,2z"/>
  <path class="fil5" d="M4620 3545l2 -2c0,0 -2,1 -2,2z"/>
  <path class="fil5" d="M4230 2968l1 -2c0,0 -2,1 -1,2z"/>
  <path class="fil5" d="M4957 3047l2 -2c0,0 -2,2 -2,2z"/>
  <path class="fil5" d="M4957 3069l2 -2c0,0 -2,1 -2,2z"/>
  <path class="fil5" d="M4389 3949l2 -3c0,1 -2,2 -2,3z"/>
  <path class="fil5" d="M5821 1749l2 -2c0,0 -2,2 -2,2z"/>
  <path class="fil5" d="M4786 1749l2 -2c0,0 -3,2 -2,2z"/>
  <path class="fil5" d="M6520 1987l1 -2c0,0 -2,2 -1,2z"/>
  <path class="fil5" d="M5804 1814l1 -2c0,0 -2,2 -1,2z"/>
  <path class="fil5" d="M4768 3602l2 -2c0,0 -2,2 -2,2z"/>
  <path class="fil5" d="M4845 3602l2 -2c0,0 -3,2 -2,2z"/>
  <path class="fil6" d="M4395 1706l2 -2c0,0 -2,1 -2,2z"/>
  <path class="fil5" d="M5573 3819l2 -2c-1,0 -3,1 -2,2z"/>
  <path class="fil6" d="M4561 3862l2 -2c0,0 -3,1 -2,2z"/>
  <path class="fil5" d="M5585 1879l1 -2c0,0 -2,2 -1,2z"/>
  <path class="fil5" d="M5940 1663l1 -2c0,0 -2,1 -1,2z"/>
  <path class="fil5" d="M6028 1879l2 -2c0,0 -2,2 -2,2z"/>
  <path class="fil5" d="M3981 1944l2 -2c0,0 -2,1 -2,2z"/>
  <path class="fil6" d="M5833 1749l2 -2c0,0 -2,2 -2,2z"/>
  <path class="fil5" d="M5668 1663l1 -2c0,0 -2,1 -1,2z"/>
  <path class="fil5" d="M4336 1699l2 -2c0,0 -2,1 -2,2z"/>
  <path class="fil5" d="M4940 1656l1 -2c0,0 -2,1 -1,2z"/>
  <path class="fil5" d="M6727 2283l1 -2c0,0 -2,1 -1,2z"/>
  <path class="fil5" d="M4336 1677l2 -2c0,0 -2,2 -2,2z"/>
  <path class="fil5" d="M4141 1879l2 -2c0,0 -3,2 -2,2z"/>
  <path class="fil4" d="M4301 1685l1 -3c0,1 -2,2 -1,3z"/>
  <polygon class="fil5" points="6295,1692 6307,1688 "/>
  <polygon class="fil4" points="6484,1605 6487,1620 "/>
  <polygon class="fil5" points="5727,1598 5727,1605 "/>
  <polygon class="fil6" points="4999,1858 4999,1865 "/>
  <polygon class="fil5" points="4188,1591 4182,1604 "/>
  <polygon class="fil6" points="4111,1634 4111,1627 "/>
  <polygon class="fil5" points="5650,3415 5650,3422 "/>
  <polygon class="fil5" points="4070,1562 4070,1569 "/>
  <polygon class="fil6" points="4117,1634 4111,1634 "/>
  <polygon class="fil5" points="5141,2672 5135,2665 "/>
  <polygon class="fil6" points="4070,1562 4064,1562 "/>
  <polygon class="fil5" points="4780,3588 4777,3574 "/>
  <polygon class="fil5" points="5141,2672 5141,2680 "/>
  <polygon class="fil6" points="5437,2694 5437,2687 "/>
  <polygon class="fil5" points="4993,2254 4987,2254 "/>
  <polygon class="fil5" points="4975,2780 4969,2780 "/>
  <polygon class="fil5" points="6372,1865 6378,1852 "/>
  <polygon class="fil5" points="4827,3588 4830,3602 "/>
  <polygon class="fil4" points="4123,1129 4135,1126 "/>
  <polygon class="fil6" points="5230,2802 5230,2809 "/>
  <polygon class="fil5" points="4194,1187 4194,1194 "/>
  <polygon class="fil5" points="6224,1360 6218,1360 "/>
  <polygon class="fil4" points="4910,1656 4916,1643 "/>
  <polygon class="fil5" points="4372,1396 4383,1393 "/>
  <polygon class="fil5" points="4372,1396 4360,1400 "/>
  <polygon class="fil5" points="5443,2701 5437,2694 "/>
  <polygon class="fil5" points="5312,3249 5307,3249 "/>
  <polygon class="fil5" points="6360,1396 6363,1411 "/>
  <polygon class="fil5" points="4342,1411 4342,1418 "/>
  <polygon class="fil6" points="5656,2744 5650,2744 "/>
  <polygon class="fil5" points="4265,1432 4265,1425 "/>
  <polygon class="fil5" points="5602,2780 5605,2795 "/>
  <polygon class="fil5" points="6111,1468 6105,1468 "/>
  <polygon class="fil5" points="4768,3898 4780,3895 "/>
  <polygon class="fil5" points="5401,1497 5401,1490 "/>
  <polygon class="fil5" points="5295,3220 5305,3228 "/>
  <polygon class="fil5" points="4253,1793 4251,1778 "/>
  <polygon class="fil6" points="6555,2002 6555,1995 "/>
  <polygon class="fil6" points="4064,1980 4061,1966 "/>
  <polygon class="fil5" points="4993,1951 4996,1966 "/>
  <polygon class="fil6" points="4993,1951 4987,1937 "/>
  <polygon class="fil5" points="5241,3199 5236,3191 "/>
  <polygon class="fil5" points="4460,1519 4471,1526 "/>
  <polygon class="fil5" points="6034,4013 6034,4021 "/>
  <polygon class="fil5" points="4662,3516 4673,3513 "/>
  <polygon class="fil5" points="4650,2096 4647,2081 "/>
  <polygon class="fil5" points="6253,1656 6241,1659 "/>
  <polygon class="fil4" points="4188,2550 4182,2550 "/>
  <polygon class="fil5" points="5543,2528 5533,2521 "/>
  <polygon class="fil5" points="5040,2860 5028,2863 "/>
  <polygon class="fil6" points="3881,1901 3892,1898 "/>
  <polygon class="fil5" points="6721,1908 6721,1915 "/>
  <polygon class="fil5" points="5407,1497 5401,1497 "/>
  <polygon class="fil6" points="4620,3516 4614,3516 "/>
  <polygon class="fil5" points="4685,1605 4679,1612 "/>
  <polygon class="fil5" points="6573,2269 6585,2265 "/>
  <polygon class="fil6" points="4786,4114 4774,4118 "/>
  <polygon class="fil4" points="5378,3516 5378,3523 "/>
 </g>
</svg>
